/* XPM */
static char *fa0e28b3b3e64726f0f4180f86ba538721KEkGEYi0baUmZK[] = {
/* columns rows colors chars-per-pixel */
"60 60 48 1 ",
"  c #1B680A",
". c #1C690B",
"X c #1E6B0D",
"o c #1C6C0D",
"O c #1D6D0E",
"+ c #1F6C0E",
"@ c #1E6E0F",
"# c #1F6F10",
"$ c #206D0F",
"% c #216E10",
"& c #226F11",
"* c #207011",
"= c #217112",
"- c #237012",
"; c #227213",
": c #247113",
"> c #237314",
", c #257214",
"< c #267315",
"1 c #247415",
"2 c #257516",
"3 c #277416",
"4 c #267617",
"5 c #287517",
"6 c #277718",
"7 c #297618",
"8 c #2A7719",
"9 c #287819",
"0 c #29791A",
"q c #2B781A",
"w c #2A7A1B",
"e c #2C791B",
"r c #2B7B1C",
"t c #2D7A1C",
"y c #2E7B1D",
"u c #2C7C1D",
"i c #2D7D1E",
"p c #2F7C1E",
"a c #2E7E1F",
"s c #307D1F",
"d c #2F7F20",
"f c #317E20",
"g c #327F21",
"h c #338022",
"j c #328223",
"k c #348123",
"l c #338324",
"z c #358224",
/* pixels */
"<<7sfe77pyyyyyq7555777q7<:-:353<&7y5<qshe7yfp7ep660411**1404",
"3:<773<7q5<355<<5577eeyy7777qeq7&<:-<7q3<<3q7:<5rqrrrrq04000",
"y757733yy73<5775<<577yyyyq77ee7735<<qse:3<5e7<<711000www4000",
"se7yq57ese537qee-:-<<3<5q73353<<yyq5qpy7737yq<3q+**;1414*;11",
"7<577<&<e5<-<5q733<<::&-73:<<3<&7pe<-3qe<<377::744444040;111",
"735yy<<5e7<<7qqeeee73<<-7533775<7ps7:3ep737yq33e000144144400",
"y77ey7qpq757eyy7eeq753<<q5<57q773eyeqyy5eqysy77s0111;111000r",
"e3-:<<7s:--<55<<5533<<<<3<<37e75+-<5qy<.3<3e7<<7011;11101100",
"q<&&<3<::37e<$5h<55335yfq7ykhq<<$&<353<3<<<:5ye<1;*1100000rr",
"<::<7ypsq7qy7<qh7q73<<<75<<eq3<5q77qyyyeeyq7qyy3rw00401100rr",
"yyye777esq7yq57y7yyyq77qe5<777efy7337yqqyyy57yq<jr0000410414",
"shfy5:<3s5-<5<<<&<qeeqeyy737e7yhfq:-7qq7577<<75:0014000111;*",
":3773<3qs3$:3<--+&<573575:<57<<3fp5<7eye&<3::57<44400041w01;",
"<353<&--h7<37<<37qye77773<3yy<<3y73<<3qy-7q357eqrrrrr04*rrw0",
"q775<-$ fe5qq57qypyyq7ey5<7ypq7e-<<<&&3y<yp75qyer00wr01*000r",
"3<<<ey7<p77q755y::<::37y-$&7755y<7yq<<yk5ysq3577*;;40041O;10",
"--57qyeeyp5&<fs<<--<qq7<yq5<&&:<-esy7eyy-<3775<:O11011101141",
":<37qeeeeq5<qpy<3<:<775<75<::<33<7ye7ye77eyyyq73*1441140;;;;",
"<<3357ye7<<qfy7577<3553:fy7<:&&&-5q7yy7-qyyype75;1444100111*",
"75<<<77y7&-pfq5ee7533<<<pyq73<<<-<35qy7+3577777511111000rr00",
"753<<377q&&qp55yyq77<<<35577eysf-<3<7e3X-:<3577q4111400wrrrr",
"7533<3357<<7777yeeq5<:37pppeeqq7<55<573+<3577qee0111400w000r",
"55555<<:<777577<eeq5:<3qhfsy73:&<77<-<3<q7q7q7qq04*14w000400",
"35775<-&X7pq5y7+qeq5<:7y:<37eeey<ee:&:35yyq733<<04;;4wr00401",
"y7<<7eq5ypq<7yq:<:<<57yp<53&&7eq&<7y7753fq5qq3--*40w04111*o;",
"<57qq555yq55775<&<<57q775q73<57<5577<357yq55333-10ww040001*1",
"$3yy5<<<q<<e7-<y-<7yyq5<7yy7773&yy7:&-5y3q7:<q7&40r00000j110",
"&<7q5:<<y:<fy$-h357qy75<eyy535<&ey7<-<7s-ye&>pp&00w01140r410",
"73-<373<p<5fp-<zqq7777777e7&&37<357577ep<py-3ff-0004111001;0",
"y3--5q5<s77fy37heq77577e773&&<77-<7eq7yp5yy37fp31000111101*1",
"55557773syqqqqq7777eqqe7577::7q5<37e7eeyeq57qrq61000011101;4",
"-7ype337ppq<7yq:35qyyy75<ye77q7:7qe757qyy5<eq3330wjr0411r010",
"y5<33:<q5e3<sy<3355<<5ysy5:<ysy7:<<377e7<3ee757q1140rjr01400",
"735yyyys5y:&qq<73553<3qye7<37q5<fpyqqqey&<775<351*;141411414",
"757sy7<3ep<$q73y<575<<<5qq7553<<fp75<57e:<575337001144041110",
"q57ee<<3ef5<ye5s<7773<<<57e753<5753<<5qe577eqqqer01110411140",
"q33qyepz<p7<y7<e<577<--<<7qeq77q35qeyq7qq777qyqe01***;;*00wr",
"fq573<3e&77<75&557q7<<<3357yyyy7<37eq7<-753<77q70411411100rr",
"e3<3<&+--e7<7<&e7q75<<5q7337yy5<&-<353<<e5<<7qq7w000rr04000r",
"  &7pyphefe3777kqqq<<<7yq5<3ey<+-<<7qyffpq55eyyy1110004;000w",
"sspq<<7py77qysfs<effy3<<e77eq7qhyy7qqeee5qspe533jj1140111100",
"eype5<57yy5353<:+:7ye77q&$:776qhsye7qeyp:3773<:<r044000011;*",
"5qye7<&-py3<:<&$&-77qqyp<<373&&3ye5337yy:<<5:<<50040000401;*",
"57q73<&&e7557e77eeeeqeeyq7epq:&<75<-&:5y377755qy000r00;*rw00",
"773<<<<:y757eyyysye7q7q7&&3yyqqh35<:&:7y7eeq7qyp40rr011*0wrj",
"q5<<5755ye777e7573<<5775-&<7q33y57y755yf77qq777e*10000441100",
"535qype7py7qq775<&&<7773e757-++1<qppeqyh37ee7555*1000100;111",
"<<7phhy5fyy7yyye5<:77y7<7<<53-3r-7pse7ys5qpyy73310001114411*",
"7<&-335e7&&epeqyq1141;;4j0041***-<55ey7-57eyyeeq-304110r1;*O",
"y<-<757e5&&7yq7yr3144;;000040000-355qy5&<37qeeqe-1;1;1400004",
"y7<5755q<&-7q777j0131;10000000rr:5737q3$<<577q7701**10004000",
"p7<5q3<7<-<57535r0014110rr000400<57537<$<<37q7eqr0;10rrr0000",
"y<<57<<<-<5333<<r014414rrrw00111<qq3<5<&7777q7qer0110rrr0rrr",
"7<-57<:<<7q5<55<0110014w04411141:7e5<57<eq77777711*;10000001",
"q<-7q535:ey7<57<;*;0014011111400<7y53qq7yq75<<<<**1011111;;;",
"7:<7ye77<ys7<77<@o*0w04040141440<ep757yyyy7<:--:O10w04404100",
"&5yeq75-e7eq3:7h1400001410r0411*y<7y++7e5e7<7fy&00004140j110",
"&7y7777:eqqq5:qh440000011000111;e:7e&&ey5e7<7fe&40004140j110",
"57733q7<yqee5:qf440000410r01*104<&qp<-qy5y7<5fy&00001110j**4",
"eq3-<qy5yeee5<7f440000410r0Oo100:$7f5<yy7y7-5fp<00041100roO1"
};
