/* XPM */
static char *d0661c9b40ba49d5b9c6e89d6f689ef7PllNdDsxDHKEAJry[] = {
/* columns rows colors chars-per-pixel */
"60 60 231 2 ",
"   c #1D6B0D",
".  c #1F7A09",
"X  c #1E6D15",
"o  c #1E7219",
"O  c #216D0F",
"+  c #256D07",
"@  c #247304",
"#  c #297604",
"$  c #247C02",
"%  c #2B7B03",
"&  c #24730C",
"*  c #29760C",
"=  c #257B0B",
"-  c #2B7B0B",
";  c #317D0D",
":  c #307A07",
">  c #226E11",
",  c #256E1B",
"<  c #2A6F1C",
"1  c #257315",
"2  c #287517",
"3  c #257B14",
"4  c #2B7A14",
"5  c #267619",
"6  c #2A7619",
"7  c #257A1C",
"8  c #2B791B",
"9  c #317A15",
"0  c #307D1F",
"q  c #327617",
"w  c #1D6B2A",
"e  c #1E722D",
"r  c #1C7927",
"t  c #1D6C3B",
"y  c #1E743A",
"u  c #246D23",
"i  c #2A6D25",
"p  c #246C2B",
"a  c #2B6D2C",
"s  c #257424",
"d  c #2B7423",
"f  c #247A22",
"g  c #2D7A22",
"h  c #24742C",
"j  c #2B732B",
"k  c #2C7A2B",
"l  c #317623",
"z  c #317D21",
"x  c #317C2B",
"c  c #307429",
"v  c #2B6E31",
"b  c #2D6F39",
"n  c #256F33",
"m  c #247234",
"M  c #2C7234",
"N  c #2B753A",
"B  c #26783A",
"V  c #337833",
"C  c #1B6B4D",
"Z  c #1A7442",
"A  c #1C6D52",
"S  c #1B6C5C",
"D  c #176B56",
"F  c #1C7352",
"G  c #236C4C",
"H  c #237443",
"J  c #297546",
"K  c #297649",
"L  c #236B5B",
"P  c #2B7756",
"I  c #0F5C79",
"U  c #19676A",
"Y  c #146874",
"T  c #1B657A",
"R  c #0F6878",
"E  c #236A6B",
"W  c #2A7361",
"Q  c #2D7668",
"!  c #2A7D63",
"~  c #266B71",
"^  c #2D737B",
"/  c #2A7475",
"(  c #317A6E",
")  c #33821D",
"_  c #318017",
"`  c #2A812F",
"'  c #338023",
"]  c #2D804C",
"[  c #378A5E",
"{  c #39867B",
"}  c #368661",
"|  c #1B5D80",
" . c #155F95",
".. c #0B5C89",
"X. c #146382",
"o. c #1A6289",
"O. c #176487",
"+. c #0E609A",
"@. c #186194",
"#. c #266C8D",
"$. c #357E8F",
"%. c #2B7290",
"&. c #30729B",
"*. c #0859AC",
"=. c #0D55A6",
"-. c #1259A3",
";. c #1357A9",
":. c #0B59B5",
">. c #1859B8",
",. c #1160A7",
"<. c #1E60B6",
"1. c #0A63A5",
"2. c #2A6EAD",
"3. c #3A7AAE",
"4. c #3475A8",
"5. c #2E6FBF",
"6. c #2E72B1",
"7. c #397BB7",
"8. c #0C4DCE",
"9. c #0D54CA",
"0. c #0854C7",
"q. c #165BC1",
"w. c #1459C8",
"e. c #0656DA",
"r. c #0F51D7",
"t. c #1972CE",
"y. c #1972D8",
"u. c #3179CD",
"i. c #3775C9",
"p. c #2B6CDD",
"a. c #2969D8",
"s. c #306DD8",
"d. c #2B76D8",
"f. c #3974D4",
"g. c #3374DA",
"h. c #367BD9",
"j. c #276BCC",
"k. c #014CE5",
"l. c #044EE7",
"z. c #114DE8",
"x. c #0D51E3",
"c. c #0458E6",
"v. c #1458E8",
"b. c #044DF4",
"n. c #0C4BF4",
"m. c #0345FF",
"M. c #0A47FF",
"N. c #014BFE",
"B. c #0B4BFD",
"V. c #0744F7",
"C. c #104DFF",
"Z. c #0552FE",
"A. c #0E55FD",
"S. c #0A5FFE",
"D. c #0757F4",
"F. c #155AFE",
"G. c #175DFA",
"H. c #1C60E5",
"J. c #1A64FF",
"K. c #1A68F9",
"L. c #1D70FF",
"P. c #2C6CE4",
"I. c #226DEB",
"U. c #2C73E5",
"Y. c #2478E5",
"T. c #2D7AE5",
"R. c #2C74ED",
"E. c #2577E9",
"W. c #3473E5",
"Q. c #3577ED",
"!. c #2464FE",
"~. c #256DFE",
"^. c #2A6CFF",
"/. c #2469F6",
"(. c #306EFF",
"). c #2373F6",
"_. c #2A74F2",
"`. c #2C79F4",
"'. c #2572FC",
"]. c #2D74FD",
"[. c #247AFF",
"{. c #217AF2",
"}. c #3274FF",
"|. c #3379F7",
" X c #407CDC",
".X c #3C8785",
"XX c #338996",
"oX c #3C81A2",
"OX c #3D82BD",
"+X c #3C93A7",
"@X c #418E88",
"#X c #439388",
"$X c #428BA6",
"%X c #418FB6",
"&X c #4B94B3",
"*X c #4D97BC",
"=X c #4E97A8",
"-X c #57A4B8",
";X c #3788C5",
":X c #3E83DA",
">X c #3D94C9",
",X c #3C83ED",
"<X c #3885E7",
"1X c #3C84FD",
"2X c #4586D6",
"3X c #4996D5",
"4X c #4695D8",
"5X c #4699D8",
"6X c #589EDA",
"7X c #4B98C6",
"8X c #5AA4CD",
"9X c #4B8DED",
"0X c #4F9EE7",
"qX c #4A94EA",
"wX c #559DE4",
"eX c #599FE6",
"rX c #549CEC",
"tX c #5698E8",
"yX c #428AF3",
"uX c #4F97FD",
"iX c #4E9DFD",
"pX c #499AF3",
"aX c #549CFD",
"sX c #569DF6",
"dX c #5CA2EB",
"fX c #59A3E4",
"gX c #4DA3F0",
"hX c #56A2FF",
"jX c #5AA3FF",
"kX c #58A3F4",
"lX c #62A7EA",
/* pixels */
"1 1 6 0 0 8 6 6 0 6 6 8 0 8 6 2 2 2 2 2 2 6 6 2 1 1 > 1 2 2 2 1 > 8 8 6 2 8 z z 0 6 0 z 0 6 6 0 2 8 3 8 5 1 o   1 5 5 8 ",
"1 1 1 6 6 2 1 2 0 6 2 6 8 6 2 2 2 2 2 2 6 0 0 0 2 2 2 2 6 8 8 2 > 2 > > > 6 6 2 1 > 2 6 6 > 2 2 5 5 5 8 8 8 4 5 5 5 4 3 ",
"8 6 2 6 2 2 2 8 6 6 2 2 2 2 2 2 > 1 2 2 6 8 8 g 8 8 6 2 8 8 6 2 2 2 2 2 8 0 8 > 2 1 2 8 6 1 2 6 2 1 5 5 8 8 3 8 3 2 8 7 ",
"z 8 6 8 6 2 2 0 0 2 1 > 2 2 6 8 1 1 1 2 1 2 2 2 8 6 2 2 2 2 2 > 8 8 6 2 8 z 0 2 2 2 2 0 6 1 2 6 X 1 1 3 5 5 5 8 o 1 1 1 ",
"2 1 2 6 6 1 > 2 0 6 2 1 6 6 8 8 1 2 > 2 > 2 > > 6 2 > 1 2 2 2 > q z 8 > > 2 6 8 1 1 2 6 2 > 1 2 1 1 1 1 3 1 1 5 1 1 1 5 ",
"2 2 2 0 8 2 1 2 6 6 2 2 6 6 8 8 8 8 8 2 2 > 2 > 6 2 2 2 2 2 2 2 6 8 z 2 > 2 8 0 2 2 6 8 6 2 2 6 5 5 3 2 5 1 7 1 5 5 5 3 ",
"0 2 2 8 8 6 6 0 2 2 1 2 6 8 2 2 8 8 8 2 2 2 > 2 6 2 2 2 6 8 2 2 1 8 8 8 8 8 8 2 8 6 8 z 0 2 2 0 3 8 5 3 1 3 1 5 5 5 8 3 ",
"6 2 > 1 2 1 2 0 1 1 1 2 6 6 2 2 2 2 2 2 2 2 2 > 2 2 > 2 6 6 6 2 > > 2 2 8 0 2   2 2 2 8 6 2 1 6 5 5 X 1 o 1 1 1 1 2 8 5 ",
"6 2 > > 2 2 1 > > 2 8 6 1 > 2 z 2 2 2 2 2 2 8 g 6 6 8 ' ' 6 1 1 > > 1 2 2 2 2 > 6 1 > 1 8 8 6 2 1 1 1 X 2 5 5 2 5 8 8 g ",
"2 > 1 1 6 8 0 0 2 8 0 8 2 2 8 z 2 6 6 2 1 1 2 8 2 1 2 8 8 2 2 2 2 2 2 8 8 z 0 8 8 8 6 6 8 8 8 2 8 7 5 5 8 5 5 3 5 3 8 8 ",
"0 0 8 8 6 2 6 6 0 8 6 6 2 6 6 8 2 8 0 8 8 2 2 8 6 2 2 2 8 2 8 z 8 6 2 2 8 8 8 6 0 8 6 8 8 8 2 2 ' 8 3 3 8 5 5 1 3 5 7 5 ",
"0 z z 0 2 1 1 2 6 2 2 2 2 2 2 > > 2 6 8 8 8 8 8 g 2 2 2 8 6 8 z z 2 1 1 2 8 8 6 6 6 2 2 2 2 2 1 5 8 2 8 7 5 5 1 5 1 1 1 ",
"> 2 2 2 2 1 2 6 0 2 1 > 2 2 > > O > 2 2 2 2 2 2 2 1 1 8 2 2 1 2 z 8 2 2 8 8 g 8 > 1 1 1 , 2 2 2 5 5 5 8 8 5 2 1 5 5 1 o ",
"> 2 2 2 1 > > > 0 6 2 2 2 2 2 1 2 6 8 8 2 2 2 8 1 1 2 8 8 2 > 2 8 2 2 2 2 2 8 8 1 2 2 6 2 6 2 8 ' 8 8 8 8 3 1 . 8 3 8 8 ",
"8 6 2 2 2 > >   0 8 8 6 2 8 6 2 0 8 z 8 5 8 8 8 2 1 5 8 8 8 6 8 > 1 2 1 > 1 2 8 2 6 8 8 6 2 q 8 7 4 7 3 8 8 7 X 8 5 5 3 ",
"2 1 1 2 6 8 2 2 6 8 6 6 2 6 6 8 , < & & & 5 j M p w p m M m h M u h B M v p j x 6 g l q 6 2 2 2 1 X 1 5 8 8 2 1 1 1 5 5 ",
"> > 2 6 0 6 6 0 8 0 2 O 2 z g < a < # @ $ k P ! E / ^ E U / ! F L W ( ^ ^ Q P i , f g < < l 4 +   o 3 5 1 1 5 8 1 3 1 1 ",
"1 1 1 6 6 0 8 6 8 8 2 1 8 0 8 d a i @ @ ` [ .X4.3.3.3.4.7.%X+XXX$.$.3.7.4.oX.XK p d k g l l q * & 1 2 1 3 1 5 8 1 o 1 1 ",
"1 1 2 1 2 6 0 8 6 1 1 6 0 8 2 6 d i u J .X&X2Xh.h.i.i.i.4XwX5X3XOX7.f.f. X X=X@XH h 8 g z d 6 l > 2 1 7 5 1 5 3 1 1 5 5 ",
"6 2 1 1 1 2 6 6 6 > 1 0 z 8 2 8 l j K ^ *XgXyXT.W.s.i.2XrXsXsXrX Xf.g.p.P.9X6X=X} m 1 3 q 6 < l 1 1 5 1 1 5 5 8 7 5 3 4 ",
"6 2 1 1 1 2 2 6 6 O > 8 g 2 2 0 4 j ! $XfXhX1Xd.g.f. XtXrXkXaXaX9X Xg.p.g.tXlX8X.X] o & = = 4 6 2 1 1 1 5 7 3 8 8 ' 8 ' ",
"6 2 2 2 1 2 2 2 6 2 1 6 6 2 2 8 2 B .X7XkXhX<X<Xu. X6XdXdXrXaXaXaX9X:Xu.u.5XlX6X-X{ B 7 - _ - 4 2 5 1 o 5 8 8 8 3 8 3 7 ",
"2 2 2 2 2 1 1 1 1 6 6 6 2 2 5 5 h [ &XfXgXgX>X>X;X4XeXeXeXeXaXuXaXpX4X;X;X3XkXtXfX*X{ H 7 = - % 3 1 X 1 5 8 8 8 5 5 8 5 ",
"2 2 2 2 2 1 O O O 6 0 6 2 d 6 X K #X6XjXhXpX5X5X;X0XkXrXtXkXjXuXaXiX0X5X2XrXaXaXjXeX$XW w X - @ 4 3 o 1 5 8 8 3 5 5 2 8 ",
"0 2 2 2 2 8 6 2 0 0 6 2 6 0 8 u P %.j./.L.K.y.t.<X,X,X<XyXyX1X|.1X1X1X<Xd.H.!.^.!.P.2.~ H h 1 @ & 2 7 8 5 2 5 1 5 1 X   ",
"2 2 6 6 6 2 2 2 8 2 2 2 2 2 2 s G X.>.z.A.Z.c.c.'.[.|.R.W.Q.}.}.`.|.<XK.G.Z.C.C.z.w.@.U t 5 * @ & 5 8 8 3 8 5 5 5 2 1 o ",
"O 1 6 0 2 1 2 2 6 2 2 0 8 1 1 j n U =.x.N.m.N.N.J.~.].R.P.R.}.]._.`.'.F.B.m.m.V.8.;.U t o = - * 5 5 3 8 5 5 5 8 8 5 5 1 ",
"O 2 6 6 2 1 > 1 6 1 1 z 8 > > z v G o.>.b.N.N.N.F.~.}.Q.U.R.}.}.E.`.~.F.B.M.M.x.>.~ Z 7 = % % - 4 8 8 8 5 3 5 8 7 2 3 1 ",
"2 2 > 2 2 2 2 1 8 2 2 z 0 > 2 0 2 d A ..0.Z.N.N.Z.J._.T.U.U._.R.T.E.J.A.B.B.c.:.Y Z 7 $ $ % % * 3 5 8 2 1 1 1 5 5 5 5 3 ",
"8 2 1 > 2 6 2 2 0 2 8 z 0 2 6 0 9 4 j S +.0.Z.N.b.K._.R.R.R.R.R.T.E.J.B.m.n.0...D r . _ % ; 9 q 2 5 8 7 3 1 1 1 5 5 1 1 ",
"2 2 2 2 6 2 2 2 0 8 8 q 0 6 6 2 q 0 8 y R 1.e.b.b.G.'.].].]._._.`._.F.B.b.x.1.R y r _ . f V V M d 8 3 8 5 1 1 1 8 2 1 1 ",
"> 2 8 z 6 2 2 2 0 0 6 1 6 0 8 > q 8 = . Z R :.e.k.D.!.].].`.R.K.).L.A.b.l.>.X.F r _ _ o v b b p d 8 ' g 3 5 3 o 7 5 3 2 ",
"g 2 2 2 2 > 2 6 2 8 2 2 0 0 1 2 p 6 # $ 7 A  .r.z.C.!.^.`.E.Y.Y.1XS.b.k.w.@.C o . $ 6 c b v d 8 2 1 1 3 8 ' 3 8 2 5 7 5 ",
"2 2 2 8 z 8 8 z 6 8 1 > 2 6 > d i d * $ 1 n T >.z.n.F.^.`.Y.Y.L.L.S.k.0.,.U e _ @ $ q a a i 2 1 & 1 o 1 5 5 2 1 1 5 2 5 ",
"2 2 6 z 0 2 1 2 8 0 2 > 6 2 2 z i s * * 1 p S O.;.8.x.^.].'.).].L.S.0.*.R A m 3 @ & 6 d i d 1 - 8 5 3 1 5 5 5 3 3 1 1 5 ",
"6 2 2 8 8 2 > 2 8 z 2 > 8 8 2 z 6 6 2 2 7 r t U | =.9.K.].'.~.].K.e.*.X.S y k 6 2 6 i l 8 6 4 3 3 5 1 5 1 5 5 5 1 5 5 5 ",
"8 2 2 6 8 8 0 ' 1 0 2 2 z 2 > 8 2 q < d 5 r o r A I *.H.^.^.^.^.c.9...U B 7 s d j a d q 4 4 4 4 5 2 1   X o 1 . 5 5 7 8 ",
"z 8 2 2 2 2 2 8 > 2 2 2 6 2 > 6 ; 6 i j s . . . r D  .w.!.(.(.!.9.-.U H 8 = 5 j b a < > # - 4 3 5 2 1 o 1 1 1 1 8 3 8 ) ",
"8 > 1 2 1 > > > > 8 2 1 6 1 > 4 ; 2 h v p 5 . _ . y Y =.H.}.(.H.;.T G s = % 6 a b v 1 * % % 2 8 7 8 8 8 3 8 5 5 8 5 8 g ",
"    > 2 z 8 0 z 6 z 6 4 6 6 6 ' 4 6 d j p 5 . _ . ` F | <.W.Q.<.| L n , # * 8 c V l - * % ; 0 f 1 5 1 8 3 8 1 1 5 8 3 8 ",
"0 0 0 6 1 1 6 0 0 6 2 6 8 z z 0 > q x V j 6 & @ = f y U #.6.i.@.W b j 8 q 8 q l q q 9 ; - * 2 s ' g 5 5 5 3 5 5 1 3 2 7 ",
"6 0 0 8 2 1 2 2 0 8 2 2 2 2 1 1 O > d c g d 2 8 1 7 w t U ^ #.~ V 8 8 q l l c 0 > * - % * * , , g 8 5 5 5 8 7 1 1 1 X 1 ",
"2 6 0 6 6 1 1 > 0 8 2 2 > 1 O > , , 6 2 d d g k o s s s v G W G 8 : q i a j d 9 # # # # 1 , s s f 8 7 8 8 3 2 1 1 1 1 1 ",
"2 6 6 6 2 1 > > 8 6 2 2 6 8 2 2 g l 6 q 8 d k k u s 8 8 f h B M # : 1 < p p 8 4 # # # 2 2 d d g 5 2 8 8 8 5 2 1 3 7 5 5 ",
"6 6 2 1 2 1 1 > 8 6 2 6 8 0 8 l k g 6 - 4 q d j u s 8 9 4 5 d z # # < < u u 6 9 % - 4 8 d j g k 1 1 5 8 3 5 1 1 8 8 8 8 ",
"8 2 1 1 2 2 2 2 0 8 6 6 8 8 6 2 d < 1 * * * 6 6 , , 2 4 * & 4 4 * * 8 d d 8 6 9 * 6 8 d d i d 8 1 5 8 7 8 7 1 1 5 5 5 8 ",
"6 1 2 6 0 0 8 6 0 0 8 6 6 6 2 6 < , O * # - 4 > 6 < < 2 4 + @ - , 6 z z 3 3 4 ) 2 6 j k j i < 6 1 2 3 7 5 2 3 5 1 o 3 1 ",
"1 1 6 0 z 0 0 2 0 8 8 8 8 0 8 d 2 , * * - - * * l 6 > 2 1 + @ 4 > d z 0 _ 3 4 3 2 d k c l d 2 < 2 2 8 5 1 1 5 5 1 1 1 1 ",
"6 > O 1 2 2 2 q 2 > > 6 0 8 8 0 8 2 1 1 * & & 1 z g 8 2 2 & &   > 6 , 1 2 0 8 1 2 2 d g 0 8 8 8 > 2 7 5 1 1 5 _ 1 1 o 1 ",
"0 6 > 1 2 2 2 8 2 > > 2 0 6 8 8 8 2 1 3 2 X 1 5 8 3 8 2 7 2 8 8 > 2 2 2 2 8 2 O 1 2 2 8 8 8 8 q 1 1 & 1 1 1 5 7 3 5 2 3 ",
"0 6 1 1 2 2 2 6 2 > > 2 6 2 2 8 g 5 5 5 1 o 1 3 7 5 5 5 5 3 g 8 2 2 2 2 2 6 2 O 1 1 2 2 6 6 6 6 2 2 X X 1 5 5 7 5 8 8 8 ",
"0 1 1 2 2 2 2 6 2 1 > 2 2 2 2 2 g 8 5 5 5 1 2 8 8 ) 8 4 5 8 8 5 1 2 2 2 2 2 1 > 2 1 2 6 6 6 8 8 f 2 1 1 5 8 ) 8 ) g 8 8 ",
"8 2 1 2 2 2 1 1 1 2 2 1 1 2 2 2 ) 5 1 5 3 1 1 3 _ 8 7 5 3 1 1 3 2 6 2 1 1 1 2 > 2 2 2 2 6 8 6 6 3 5 1 1 5 _ 8 8 5 8 7 3 ",
"6 2 > 2 8 1 > 1 1 6 6 2 > 1 2 1 7 1 1 5 5 2 5 8 5 5 5 5 1 1 2 5 2 6 8 2 1 2 2 2 0 6 6 6 2 2 6 2 5 1 o 1 5 5 5 7 5 2 5 5 ",
"6 2 > 6 8 2 2 2 2 6 8 2 2 2 2 2 X . 1 5 5 5 5 8 1 o 1 1 5 1 5 5 1 6 0 2 2 6 6 6 8 8 2 2 2 1 2 2 1 1 5 5 1 2 5 5 5 1 2 3 ",
"6 > 2 6 8 8 2 6 2 8 z 2 1 2 6 2     1 8 3 5 5 8 2 7 1 1 1 7 5 5 2 8 8 2 2 6 8 0 0 8 2 2 1 > > >   X 8 3 5 5 5 3 3 2 2 5 ",
"2 6 8 6 6 8 6 1 6 8 8 8 2 1 2 z 2 7 2 5 8 5 5 5 1 8 3 8 1 1 1 1 8 2 6 0 > > 8 6 8 8 2 2 6 z 8 1 3 5 3 8 1 1 1 5 ) 5 3 5 ",
"1 2 8 6 2 8 6 2 6 6 6 0 2 1 2 z 2 5 5 5 2 8 5 2 1 7 5 2 1 3 7 1 6 1 6 0 1 > 8 0 8 q 2 2 6 z 0 2 8 8 5 2 3 1 7 5 8 1 1 5 ",
"2 6 6 2 2 6 8 2 6 6 6 8 2 > 4 0 5 5 3 8 8 3 5 5 5 8 8 1 X 1 8 7 2 > 6 0 1 > 8 0 8 8 2 2 6 z 8 1 5 8 3 8 1 1 5 5 7 1 o 2 ",
"6 8 6 2 2 6 8 6 6 6 0 6 2 1 6 0 5 5 5 8 3 5 5 5 3 8 3 X   1 8 8 2 > 2 0 2 1 8 z 8 8 2 2 8 z 8 2 8 7 8 5 2 1 5 5 7 1   1 "
};
