/* XPM */
static char *_f1de842b9854722df983265c09f4b22etl1TtmsjL7cvtz8[] = {
/* columns rows colors chars-per-pixel */
"60 60 233 2 ",
"   c #3A1B12",
".  c #3A2B0E",
"X  c #2E2A1E",
"o  c #362314",
"O  c #392616",
"+  c #3B251A",
"@  c #3D2B1B",
"#  c #392818",
"$  c #36300E",
"%  c #3D2C23",
"&  c #3D3124",
"*  c #3B352A",
"=  c #40260D",
"-  c #41251B",
";  c #422D1D",
":  c #462C13",
">  c #44301F",
",  c #4C351C",
"<  c #473B1C",
"1  c #453617",
"2  c #51391F",
"3  c #53331D",
"4  c #442D23",
"5  c #4C2D21",
"6  c #453323",
"7  c #4A3525",
"8  c #4B3B24",
"9  c #43362A",
"0  c #4B362A",
"q  c #463A2C",
"w  c #4D3B2B",
"e  c #523C25",
"r  c #523D2E",
"t  c #573829",
"y  c #4C3D32",
"u  c #443B31",
"i  c #533E32",
"p  c #5B3D32",
"a  c #553B35",
"s  c #633D32",
"d  c #345D17",
"f  c #1A6A0A",
"g  c #1D730E",
"h  c #1C790E",
"j  c #1E7414",
"k  c #1E7916",
"l  c #1F7A18",
"z  c #1E7119",
"x  c #1E6F10",
"c  c #236D0E",
"v  c #23630D",
"b  c #21720E",
"n  c #246E13",
"m  c #2A6D14",
"M  c #2D6E1A",
"N  c #2A6818",
"B  c #326917",
"V  c #33651B",
"C  c #3A631D",
"Z  c #356C1D",
"A  c #3A6C1E",
"S  c #326216",
"D  c #247415",
"F  c #2B7315",
"G  c #247915",
"H  c #2B7917",
"J  c #257619",
"K  c #2B741A",
"L  c #247A1B",
"P  c #2A7A1B",
"I  c #32741C",
"U  c #39721E",
"Y  c #327A1E",
"T  c #38791F",
"R  c #346D22",
"E  c #3B6E22",
"W  c #3E6522",
"Q  c #2C7622",
"!  c #2C7B22",
"~  c #357322",
"^  c #3B7223",
"/  c #337B21",
"(  c #397B23",
")  c #3A7729",
"_  c #49401F",
"`  c #406C1F",
"'  c #4D412D",
"]  c #4B4A25",
"[  c #534325",
"{  c #544926",
"}  c #54432B",
"|  c #5A442D",
" . c #544A2C",
".. c #5B4E2C",
"X. c #5C512C",
"o. c #55582D",
"O. c #4E4133",
"+. c #484237",
"@. c #554233",
"#. c #5A4534",
"$. c #574B30",
"%. c #5B4B34",
"&. c #534539",
"*. c #5B463A",
"=. c #554B3B",
"-. c #5D4B3B",
";. c #5D5334",
":. c #5B5A34",
">. c #5C5538",
",. c #435C22",
"<. c #61472D",
"1. c #624B35",
"2. c #624D3D",
"3. c #664736",
"4. c #615635",
"5. c #6A5537",
"6. c #625C35",
"7. c #63523C",
"8. c #6A533D",
"9. c #645A3B",
"0. c #6B5B3B",
"q. c #715E3E",
"w. c #6A4E37",
"e. c #446525",
"r. c #436B24",
"t. c #4E6827",
"y. c #4B642A",
"u. c #476C29",
"i. c #4C6B2C",
"p. c #46662A",
"a. c #516B2B",
"s. c #5C672F",
"d. c #44762B",
"f. c #4C742C",
"g. c #427829",
"h. c #52712D",
"j. c #5C6433",
"k. c #526D32",
"l. c #596B36",
"z. c #5B6C3A",
"x. c #4B7530",
"c. c #547332",
"v. c #5A7534",
"b. c #5A7936",
"n. c #5D743B",
"m. c #577A37",
"M. c #616334",
"N. c #626936",
"B. c #65643C",
"V. c #656C3B",
"C. c #696B3D",
"Z. c #6A603D",
"A. c #63723C",
"S. c #627A3E",
"D. c #69703D",
"F. c #70603E",
"G. c #5D4B42",
"H. c #5F5244",
"J. c #5B5848",
"K. c #644D42",
"L. c #694D43",
"P. c #754C44",
"I. c #655343",
"U. c #6B5544",
"Y. c #6B5944",
"T. c #635349",
"R. c #6B554A",
"E. c #665A4C",
"W. c #6D5B4B",
"Q. c #665946",
"!. c #725A45",
"~. c #72554A",
"^. c #725C4D",
"/. c #765747",
"(. c #6D5C53",
"). c #735E51",
"_. c #7A5E51",
"`. c #6D6243",
"'. c #6D6D42",
"]. c #696746",
"[. c #786444",
"{. c #73624E",
"}. c #7A624D",
"|. c #756B47",
" X c #6C7444",
".X c #6B7D45",
"XX c #6A7946",
"oX c #727345",
"OX c #717A46",
"+X c #737D4B",
"@X c #7A7A4E",
"#X c #75744C",
"$X c #6E6254",
"%X c #756252",
"&X c #7B6454",
"*X c #7B6A56",
"=X c #7C645A",
"-X c #76695A",
";X c #7D6A5A",
":X c #74655B",
">X c #797653",
",X c #7E6D64",
"<X c #797061",
"1X c #825E4E",
"2X c #816555",
"3X c #816558",
"4X c #836C5C",
"5X c #89685A",
"6X c #88755D",
"7X c #836D62",
"8X c #896E60",
"9X c #857361",
"0X c #8A7565",
"qX c #8B7867",
"wX c #8D7B69",
"eX c #8E7769",
"rX c #927D6C",
"tX c #94756B",
"yX c #956A63",
"uX c #25801E",
"iX c #2B841D",
"pX c #2D8121",
"aX c #308221",
"sX c #378128",
"dX c #58833B",
"fX c #6B8447",
"gX c #78824F",
"hX c #7D8453",
"jX c #7B8A57",
"kX c #848C5B",
"lX c #998476",
"zX c #8C9366",
"xX c #A7867D",
/* pixels */
"F D F Y / I F P Y P K P P Y P D F c F F K L Q L Q z z z n J n n N Z ( I b b iXiXh uXh iXP K J K K L L K J D D f D D P L ",
"F n F K K F D F P P K F P P H F F F F F P / Q ! Q Q Q z Q R ) ) A R B m F Y G g b b b G Q K M J K K P P P P L P F L P P ",
"I K F K K F F P Y K D F F H K D b F F H I I ~ ^ R ) x.x.d.W C d W E V N I aXI b G b b iXP J m K D D J J P P P P D D P P ",
"/ K K P K F K P P K m D D K P F H F F m N V E u.k.n.XX+X XA.V.l.i.k.k.W A A T T H b b iXL D D D n D D J G K D P D D D D ",
"K D F I K D n F Y K D D F K Y P H G M N V u.N. XkX6XF.5.X.X.X.6.o.l.l.k.p.W Z Z U F F K K D D J D D D D D D D D D D D D ",
"K D F P P F D F K K F F F K P K K K K ^ x.XX@XkX0.5.<.3 : = = : ] ] ] y.l.n.c.W ` U I I K D D D P L K J D J K J D F L P ",
"P P F P P F K Y F F F F K P K F K Q ^ x.fX+X|.q.3 3 s s 3.3.<.#.8 8 8 ] :.'.XXn.i.r.U Y K F D G P D D D D D G J L P P P ",
"P F D D D D K / D D m F K K F F Z E x.XX+X'.1.t P.w.3.P.P.~./.U.-.I.%.' 8 ] B.+Xa.u.E ^ / K G L D D D D D D D D D D K G ",
"P D x n D F D D F P K F m F I T E d.jXzXj.: p 1X5XyXP.a - a a y K.L.~.p *.r _ zXgXl.C A I b L G D D D D D P F J J P P P ",
"D D D D K P Y Y K K K F F F I U u.fXjXo.< 0.1XtXyXs   a 4 9 X u 4 a ~.R./.2.e 6.#XA.e.A U P P G P P L D L K G D P P P P ",
"P P P L H J K P Y K I K F I I B l.jX#X$ [ 6XtXxXtXL.+ u G.J.* * X a R.3X8X3X!.e '.A.a.C ^ aXH D aXP P P P G D D K L P D ",
"pXpXpXP D D D D Y K F F I F m A z.>X{ < {.%X).tX5X~.4 % * E.* X % T.L.~.~.2X5X} ..M.h.,.A Y b G P D P D P P K D G D D D ",
"j G L D j D D K Y F F F M m F ` j.0.. 9.qXr i 2.:XG.% a u +.* * & H.=.i 5 s 2X5.e o.A.e.S I g H P J D P P P D D P D D D ",
"j j L D D j n n Y F m F B m H f.].Y.< %X*X9 w % :X,XH.G.* G.* +.' J.G.w - 3 8.1X[ { +Xv.S U D aXP P P P P P D j P P P D ",
"L L L G D D x x Y F F I F m T dXoX%.Y.:X=.@.a % (.,X(.G.4 a y 9 =.J.T.y 7 5 t 2X5.< +XfXS U H P P L P P P P D D J K L P ",
"J D j D L P F n Y K K / I m g.fX#X@ ;X%X% G.y 4 ,X(.G.=XR.K.a ).>.=.=.4 7 5   [./.1 OXfXS U K b D D D D P P D D D D D P ",
"m n z l H iXH H / K D L K A h.+X9.w *X2.o =.w w ^.Y.6 I.*XR.&X#.6 r ^.w q O.+ R.I.} 9.+Xr.B P D f D D K D D D P D D D D ",
"M D L l G Y H I Y D J L / U c.OX].*.0XI.> 2.r 8 :XW.; #.%X^.%X7 0 | W.0 * y + K.2X1.|.hXh.B Y g D D L G D D D L D D D D ",
"M m J k l G H I F F L L ! E c.OX`.#.wXU.7 U.@.6 ^.7.> %.^.I.^.2.t | I.6 6 O.9 K.5X9.|.kXb.Z P g D D D K K D J P D D D D ",
"I K j k k G H I F n z ! Q ^ v.+X9.w 9X-.r Y.#.@ ^.2.w W.Q.r I.*X#.#.-.q 9 =.y K._.| `.kXb.U P G j D D J D G H P P P P P ",
"Z K D z k j F F K D D L Q E c.gX>.4 ;X#.#.Q.@.O 6X%XI.I.*.6 } 8.8.L.I.y % u 0 0 ^.e Z.hXb.U Y G D D D D K L P P P ! iXP ",
"F K z l j D F F I D D L J E v.hX9.; 9X-.%.-.} 6 qX4XI.w r 2.@.@ 1.w.I.@.% 9 0 4 _.} 9.hXb.Z P G J D D D G P P P P P P P ",
"Z K L k k D b m F D Q l K E v.gX9.; rXR.-.r #.2.wX%X#.7 #.U.#.; 5 #.I.-.% * *.y 4X| Z.kXb.B H G P J D D D P P P P D P K ",
"M K L l k D F n m z ! ! I A h.gX>.@ lX{.2.6 %.%XlX7.} 2.I.@.6 2.6 %.{.T.& 9 G.a 5X1.Z.hXb.B P b P D x D P P P P D P D L ",
"Y F z k L L H K Y P L L Q R c.oX$.w qX%XQ.%X4X%XwX9X=X=.6 U.8 w 8.L.9X).$XJ.G.y 2X| |.kXf.S H g j D P P L D D D D D D f ",
"Z K L l l G F F I K L J K Z a. X;.6 9X;X*X=XY.8 rX9X*X;XU.2.} U.1.U.*X@.J.$XR.y &X} `.kXc.B D f D K P P F L F P D D D D ",
"N M L uXL b F F F K z L M R y.V.>.6 qXqX4X%X#.o W.I.#.6X4X*X^.*X1.U.;Xw &.E.).T._.} 6.hXh.U P g D P P P P D L P P L D D ",
"m n L L G b c m K D L l Q Z t.N.;.6 9X;XU.#.0 ; Q.I.; ^.9X0X).0 r 2.9XH.i u G._.2Xt X.A.t.A P G L P P P D D P P P P K J ",
"F K z j l G F F K K L ! K A t.V.%.# ^.I.r 7 8 7 W.U.6 ^.0XwX*X0 7 1.;X-.O.9 &.R.}.[ [ j.t.U Y H G P P P D D D P P G D D ",
"~ D z h l G F m I K P pXQ U t.V.4.o 7.#.} *.@.6 ^.I.@.6X0X4X%X*Xt U.;XO.&.T.T.a ~.| { j.h.( P G D L P P D D D D P D D D ",
"I F L k G G F F Y P L ! Q E a.V.9.@ Q.#.} 2.$.@ 9X;X4X9XU.U.@.^.U./.*Xw =.E.T.i ^.5.X.j.h.^ G D J P P P P D D D P D D D ",
"N K L uXL G F F K L ! L K Z a.V.%.6 %X#.6 w w @ ;X0XqXW.w {.-.^.}.!.:XO.+.y i @.3XY.;.j.i.A F L J P P P P J D D P P D P ",
"~ F J z k j F H T H L z Q ^ a.M.%.w Y.y 0 7 r ; ;XW.-.@ -.;X@.6 | 6X^.6 =.6 &.i 3Xe %.N.i.E D L D D D L P P P P D D P P ",
"I M L uXuXP H T I F J j L E t.j.$.@ I.-.w @ r I.%X*.i i R.W.i Y.> 2X4XI.H.* @.7 %X8 ;.N.i.E D j D D D D K P J D D J J D ",
"I K L uXG G F F K F J z K E a.j.} # -.*.y 6 -.W.W.W.U.w i -.r 2.}.&X*X-X$X@ w i /.7 4. Xk.E n J P D D D D K G G D D D F ",
"I K L l iXb m F Y P L L Q ^ a.N.$.6 2.w @.-.K.w W.:XY.i r 2.-.#.6X}.{.Q.T.&.I.i /.e 9. Xc.E L L P L D D D L K D D D P L ",
"I M D l L L Y aXI K Q L K E a.N.$.0 I.*.*.-.#.o %X#.8 G.^.W.).&X} !.*Xq @.-X7Xw ^.e 4. Xk.E K pXP D D x c j D D P P P P ",
") K L k l G F I F L l L n R y.N.$.@ R.Y.2.6 6 6 %X@.4 *.Y.%X*XK.t 1.{.q O.=.(.%X&Xe >.'.i.~ L pXP D D D D D D D P P P P ",
"I K z k k g c m F K l l M Z t.N.} @ I.I.*.@ 6 0 W.I.w @.-.W.-X7 U.1.W.} =.& w 0X2Xe >.V.k.^ D ! P P L P P P P D L P P P ",
"v v j l uXL Y Y I P ! Q J Z a.V.$.6 K.w w w @.@ W.i ; R.).T.*XU., 8.*X& =.-.y *.5X} >. Xc.d.D L D D D J P P D D F L P P ",
"/ / uXl G b F T / P L L Q E t.V.} o I.@.w 0 w w -.W.@.=X-.0 I.=X!.%.W.' =.H.@.r *Xt $. Xc.Z K L aXP P D F P P D D D J D ",
"Y Y ! uXk b F H Y K z L Q E t.V.$.6 R.6 7 =.w o %XW.{.-.r ^.@.8.!.{.*X' y O.-.a 9X1.>.oXc.N n z ! P L D P L P D D D D D ",
"Z K L uXG j m c Y D D J K Z t.N. .6 W.7 6 @.w O -XR.K.0 7 %Xr 7 2.}.{.w O.O.I.y eX5.9.+Xc.M D D P P P P P P D D D D D D ",
"Z K L l l D c c I F z L Q Z t.N.} # R.*.7 4 0 2.).Y.# @.@.@.-.7 7 !.{.H.-.9 K.r 5X1.4.oXc.E ! pXG F L P P D D D P P P P ",
"I K J z k D b m ~ J L l Q E i.V.%.@ Y.=.w 6 @.).).).6 -.@.i -.#.t }.6X-XT.X -.K.4X1.>. Xk.Z K L D D L P P F D D P P P P ",
"I F z k D G K F I J J L Q E a.V.9.0 ).O.@.R.I.#.%XR.Y.*.7 I.w -.2X6X;XW.W.=.W.-.tXY.`.oXk.Z J z D D P P P L D D J J J P ",
"I M L l uXiXK I Y K L Q / ^ a.D.7.6 ^.-.K.R.@.@ W.2.I.-.r ^.@.Y.4X2X*X' T.-X-XK.rX!.`.+Xk.R P D D D P P L D D K D D D D ",
"m D P uXaXaXH F P L D L / ^ h.D.| o R.^.^.@.; O ~.2.+ :X=XI.%X7X6 U.kXq 9 (.7X4X4X5.:.'.i.R P J D D P P D D D L D D D D ",
"K m n D D F b H G g D K ^ E h.OX0.- 3X~.7 L.0 5 ~.2.5 t L._.P.; r Y.<X+.y G.a lXeX| :.+Xi.~ sXj D D D J D D J P D D D D ",
"Q J m m F F G iXD g D F I r.h..X0.- ~.2.5 3.t a =X8.; p _.3X=X2.9 G.:X&.G.T.a 7X0X} :.XXi.R ) L D D D D D D F P F L D G ",
"/ J F F H F b H j g D F U ` h..X`.6 W.-.& #.w w %XH.8 -.U.-.7.-.6 O.I.y *.K.4 p 5X2 X.OXi.V ( P J D D x G L P P P P P P ",
"/ K D F H H b G g g D K Z A h.S.o.& ].>.' 7.O.w Q.{.E.].H.' =.>.#.#.I.#.L.~.s L./.3 ..D.c.R Z K P J D D F ! P P P P P P ",
"P F F F F F b G g g G K B A h.S.:. .{.{.Y.*XY.Y.Q.;X*X%XQ.>.{.Q.w.8.!.~._.3X_.5Xw.2 X.OXb.A Z K P D D D L P pXP P L P P ",
"K F b F F b b b g G P K M A f.S.B.%.Y.5.%.9.%.>.Y.[.| [ } | %., e | 1.1.p 3.3.<.<.{ 6.D.v.r.B K K D D D D F P P F L D P ",
"K D c F H b H G b iXuXK m Z f.S.0.<.| 2 : , : : q.w., , 2 , 2 = , 2 [ } < 1 > . { X.s.N.a.r.Z m n D D D D J D D J F K D ",
"K D F H T F H H G P aXP M Z d.b.6X|.[.F.q.F.5.0.q.q.5.[.q...5.0.;.6.6.:.o.:.B.:.{ o.s.a.r.U M n f D P P P D D P J G D J ",
"D L K K H H H F G G H H K Z ^ c.fX@X@X@X].B.B.M.'.|.#XoX].].].B.C.N.A.XXz.l.z.z. Xn.c.f.g.( K z P P H D D D K G P P D P ",
"D L K F B H H c G G L P K M E x.t.i.k.k.k.p.y.y.y.k.k.y.y.y.k.y.y.,.p.i.p.W p.p.p.u.u.E ^ / L D L K P L D D L K P P D D ",
"L P P F F H K F H iXiXP K M ~ g.R R R ^ R R R R R ~ ^ Z V R R R W d V E V N R R A A A Z / Q L J D P P D J D D P K D D D ",
"L P K F m H H F iXL L P K N I ^ Q Q Q Q Q Q Q Q ! ! Q M z Q Q Q R S E ) R R E ~ E U U I I ! L l L P P P D D G F G D j D "
};
