/* XPM */
static char *_db868f0000e4d049c5b734634edb0eagcqLhTQLBsdS7Bwf[] = {
/* columns rows colors chars-per-pixel */
"60 60 248 2 ",
"   c #1B1C05",
".  c #181F1C",
"X  c #261A05",
"o  c #321E11",
"O  c #182902",
"+  c #193806",
"@  c #192719",
"#  c #1D3913",
"$  c #0E3714",
"%  c #272806",
"&  c #342D0A",
"*  c #372807",
"=  c #2B340E",
"-  c #253707",
";  c #393607",
":  c #282915",
">  c #362A18",
",  c #293717",
"<  c #383718",
"1  c #1C3626",
"2  c #073E21",
"3  c #282925",
"4  c #382C23",
"5  c #2B3728",
"6  c #383828",
"7  c #313B33",
"8  c #482808",
"9  c #562A06",
"0  c #453B0A",
"q  c #463704",
"w  c #563809",
"e  c #462D13",
"r  c #443919",
"t  c #533514",
"y  c #693A06",
"u  c #6E3C10",
"i  c #463926",
"p  c #493C32",
"a  c #184907",
"s  c #1D5C09",
"d  c #1A5408",
"f  c #1E4B14",
"g  c #195815",
"h  c #0C4A00",
"j  c #28480B",
"k  c #374709",
"l  c #285408",
"z  c #34550A",
"x  c #254313",
"c  c #294818",
"v  c #374718",
"b  c #2C5414",
"n  c #255D13",
"m  c #2C5C1B",
"M  c #285617",
"N  c #3C5413",
"B  c #335C1C",
"V  c #375719",
"C  c #1C6B0C",
"Z  c #1F650B",
"A  c #1E730D",
"S  c #1C6815",
"D  c #1E7414",
"F  c #1C7915",
"G  c #1C751A",
"H  c #226D0D",
"J  c #22720D",
"K  c #26790E",
"L  c #246413",
"P  c #246D13",
"I  c #2B6C14",
"U  c #2D641B",
"Y  c #246B1A",
"T  c #2B6C1B",
"R  c #2B6516",
"E  c #336413",
"W  c #336C1C",
"Q  c #3A6C1D",
"!  c #336618",
"~  c #257314",
"^  c #297415",
"/  c #247914",
"(  c #297916",
")  c #267619",
"_  c #2B751A",
"`  c #257A1A",
"'  c #2B791B",
"]  c #32751C",
"[  c #39721E",
"{  c #317B1D",
"}  c #307616",
"|  c #15492A",
" . c #2C4924",
".. c #3B4827",
"X. c #2A5B27",
"o. c #395826",
"O. c #254537",
"+. c #3B4437",
"@. c #395A34",
"#. c #2E5E34",
"$. c #2B6423",
"%. c #2C6B23",
"&. c #296C27",
"*. c #336424",
"=. c #3A6424",
"-. c #346B23",
";. c #3B6C26",
":. c #3C642B",
">. c #346D2A",
",. c #3C6B2B",
"<. c #2C7422",
"1. c #2D7A23",
"2. c #2C752A",
"3. c #247825",
"4. c #347324",
"5. c #3A7225",
"6. c #327B22",
"7. c #34732B",
"8. c #3B732B",
"9. c #387A2A",
"0. c #3B6432",
"q. c #366834",
"w. c #336F33",
"e. c #1D7020",
"r. c #43480B",
"t. c #49491A",
"y. c #584815",
"u. c #445819",
"i. c #575517",
"p. c #5E430C",
"a. c #6C4203",
"s. c #65460A",
"d. c #75460B",
"f. c #694B15",
"g. c #774613",
"h. c #665417",
"j. c #725517",
"k. c #45651E",
"l. c #494728",
"z. c #554829",
"x. c #475627",
"c. c #56542A",
"v. c #474835",
"b. c #564A35",
"n. c #475736",
"m. c #585738",
"M. c #645926",
"N. c #685B39",
"B. c #6F5026",
"V. c #426D23",
"C. c #426C2B",
"Z. c #476427",
"A. c #566725",
"S. c #437227",
"D. c #52742B",
"F. c #476835",
"G. c #546937",
"H. c #447739",
"J. c #587936",
"K. c #636129",
"L. c #696737",
"P. c #76673A",
"I. c #687139",
"U. c #7B6F37",
"Y. c #384D45",
"T. c #385446",
"R. c #2D594C",
"E. c #3D695C",
"W. c #484A41",
"Q. c #4B5745",
"!. c #545B44",
"~. c #5A5846",
"^. c #645A45",
"/. c #5A6647",
"(. c #597948",
"). c #486256",
"_. c #526F4A",
"`. c #666647",
"'. c #756B44",
"]. c #766749",
"[. c #687745",
"{. c #787446",
"}. c #676A56",
"|. c #736951",
" X c #6C7656",
".X c #7B7756",
"XX c #4A6E66",
"oX c #7A6B62",
"OX c #777963",
"+X c #7E7E74",
"@X c #877233",
"#X c #87784A",
"$X c #836D54",
"%X c #867B5B",
"&X c #8B744E",
"*X c #897A66",
"=X c #987F61",
"-X c #2B801A",
";X c #33811E",
":X c #298024",
">X c #348325",
",X c #368733",
"<X c #47802F",
"1X c #778658",
"2X c #71894B",
"3X c #778A69",
"4X c #80844B",
"5X c #898558",
"6X c #948859",
"7X c #8A9758",
"8X c #A99459",
"9X c #8B8865",
"0X c #978967",
"qX c #889567",
"wX c #9A9469",
"eX c #989576",
"rX c #908C76",
"tX c #A59B69",
"yX c #B59C7A",
"uX c #AC976D",
"iX c #94A369",
"pX c #A8A477",
"aX c #B1AD71",
"sX c #CFB66F",
"dX c #DAC573",
"fX c #EBDB7C",
"gX c #AE9C89",
"hX c #95A787",
"jX c #ACA284",
"kX c #B8A387",
"lX c #BCB888",
"zX c #BAAB93",
"xX c #BDB595",
"cX c #969880",
"vX c #C6B588",
"bX c #D5BB91",
"nX c #C9B897",
"mX c #BBCF8B",
"MX c #D7C79A",
"NX c #CFCB94",
"BX c #E6D395",
"VX c #ECD48C",
"CX c #D7CAA7",
"ZX c #DDD4B7",
"AX c #D4C9AD",
"SX c #F1E4BC",
"DX c #E3CBA7",
"FX c #EBE4C9",
/* pixels */
"~ ~ ) { >X) ) ' { ' _ ' ' ' ) ^ _ } H _ <._ 9.4.2.$.*.*.*.b b =.Q ! Q } } [ 6.9.2.2.3.2.' ( ( K ( ( ' ) ) / ~ D ^ ~ ) ) ",
"^ ~ ^ _ ^ ^ ~ ^ ' ' _ ^ ' ' ) ^ J _ P 6.9._ 7.>.>.m b b b j b u.k.z N E E E T T w.2.2.1.) / K K ^ ( ) ' ' ' ) ) ) ) ` ' ",
"' _ ^ ) ) ^ ^ ' 1._ ^ ~ ^ _ ) ( D ' ~ 6.6.R 5.;.! b j N u.r.u.i.k r.r.r.z l l l U U 2.2.` / -X-X~ ~ / ) ' ' ) ' ` ) ) ) ",
"6.' ) ' ' _ _ ' ' _ ~ ~ ^ _ ) ) ` ` G <.P d V u.k k r.i.i.i.i.i.h.h.h.f.i.i.r.z M m %.2.( A A -XA ~ ~ ~ / ' ) ) ~ ~ / ^ ",
"_ ~ ^ ' ) ~ ~ ^ ' ' ) ~ ) _ ' ' G G Y <.n + j k k r.p.h.f.p.p.s.u g.@Xu h.i.i.u.o.=.>.7.1.D A A ~ ~ ~ ~ ^ ~ ~ ` ~ ~ ~ / ",
"_ ~ _ ' ' ^ ~ ^ ' _ ^ ~ _ ' ' ` 3.3.2.9.! j ; ; p.f.f.f.a.a.s.d.y u 9 y s.f.i.i.x.V :.7.6._ F / / ) ` ` ` ~ ~ ^ ) ) ) ' ",
"' ) ^ ' ' ) _ ' ^ ~ ^ ^ _ ) _ _ 3.2.$.C.V ; ; w f.g.g.d.a.a.a.d.d.g.g.g.g.j.j.M.i.V V =.7.6.' -X) ) ~ ~ ` ~ ` ) ) ) ` ' ",
"' ^ ~ ~ ^ ^ ) 6.~ ~ ~ ^ ' ) _ ) %.$.j b k % q w 9 9 a.a.d.d.a.a.d.g.u s.y y y.y.t.v v m W _ ^ ~ / ^ ~ ~ D ~ ~ ~ ) / ) ) ",
"' ~ P P ^ ^ ^ ~ ~ ^ ) ^ ~ ~ ^ _ n + O - & 8 9 9 9 9 u g.y j.j.a.g.y f.f.w s.y.X 0 v j + l ] { J ~ ~ D ~ / ) ' ) ) ) ' -X",
"~ ~ ~ ~ ) ' ' 1.) ' ' ' ) _ _ 5.B t.v ; ; 8 8 8 9 u y w f.j.j.h.q w s.h.y.f.f.0 ; x.x.o.U Q 6.{ ' ' ) ) ' ) ) ~ ' ' ' ' ",
"' { ' ' ) _ ) ) ' ' { ' ) ) ) 5.Z.c.r * 8 e e 9 9 B.9 t j.y.r.* q q ; q q q y.t.& v x.F.,.W } _ >X-X) ' ' ) / ~ ) ) ) ) ",
"{ >X6.' ^ ~ ^ ^ ' ) _ ^ ^ ^ ( W x.r % * e e e 8 8 t 8 t M.0 y.; % % % X * * 0 z.% % - B C.5.^ H _ ) ) ) ) ) ` ~ ) / ~ ~ ",
"~ ^ ) _ ^ ~ ^ ) _ ^ ^ ^ ~ ~ ^ W ; & ; < r * o e e e X l.r < %X9XuXjXeXwX6X'.z.r < % O x -.4.) ~ ) ( ` ) ' ` ^ ~ ) ) ^ ~ ",
"~ ^ ) ^ ~ D P ~ { ' ) ^ _ ) ^ W - & < < > % l.].> X X i & * ].%X].$X.X%X%X%XP.t < = + x m P ) -X-X' ' ' ' ) ~ ~ ' ' ) ) ",
") _ _ ^ ~ ~ H Z { ' ' _ ) ' _ W - < ; % = m.OXrX% : > > > > i p p p b.N.N.$XN.o & = x M $.Y / ` ' ) ) ' -X) ) D ) ` ' ' ",
"^ ~ ~ ^ _ ' _ ~ ' ' _ ^ ) ) ^ W O = = = n.rXeXOX  > > X > p t z.N.N.&X=X0XyX*X< % = , X.4.6.-XA D ~ ~ ^ ` ` ) ^ ~ ~ / _ ",
"H P ^ ^ _ { _ { 6.1.^ Y _ 6.1.U O 4 : m.eX.Xm.l.i i o o i > q y.@Xg.u 9 @X$X9Xl.- , M $.4.] ^ ~ A ~ / / F F / ` ~ ^ I ^ ",
"J J ^ ^ _ _ { _ ' _ ^ _ _ 6.1.-...> v.9X1XN.`.b.p p e i ].tXaXaXsXdXyXuX@XP.K...O x :.8.9.Y P ^ H ~ D / F F F ` ~ ~ P I ",
"^ ^ ^ ^ ^ _ { ' _ ^ ) _ 6.6.1.>...: m..Xc.5X9Xr |.p i i '.yXBXVXVXBXsXBXbXDXrXl.O o._.w.7.<./ ^ J ~ / F / F ` ` ~ I ^ ^ ",
"^ K ^ J ^ ^ _ _ _ Y ) 6.6._ _ 8.n.: n. X< pX%X& |.i i p b.'.aXMXsXdXVXBXbX0X|.> 5 F._.&.n 1.>XD J ~ ~ F ~ / ` ` ' ' _ _ ",
"} ^ ^ P ^ ^ ^ ^ ' ) Y _ 6._ _ 8.F...l.qXx.5Xc.c.*X$X*X*XN.z.P.8XfXdXdXdXvX].b.X }._.@.f g ) 1.^ / ) ) ~ ^ ) ) ' { { { 6.",
"K ^ ^ ^ H ^ ^ ^ _ ^ ~ _ _ _ _ -.o.x.- [.L.qXl.z.*XeXzXrXz.* & q @XdXfXsXw * b.}.cXQ.1 M X.S P 6._ ) ) P ^ _ ' ' ' ' ' _ ",
"^ K ^ ^ ^ ~ ~ P ) _ ^ _ _ 1.P Z a v - k [.5Xm.& *XzXZXzX%X^..XwX8XfXdXsXP.].*X$XoXv.@ c X.n R 6._ T L ^ } [ { _ _ ) ) _ ",
"^ ^ ^ ^ ^ ~ P P Y _ _ _ 6.1.Y d a j v v 2Xl.c.; ^.gXAXkX].z..XNXVXsXdXVXbX$X$X|.p 7 5 , c ;.;.I 5.} U W W [ 5.4._ _ ) / ",
"} K J ^ _ _ _ ^ _ 6.' ) ^ 6.<.T *.:.V + x.qX9X`.l.t.`..X].|.rXvXdXsXdXMXbXvXgXo 4 p ^.G.v z k.E W R ! V.! z l } ^ Y D D ",
"^ ^ _ ^ } ^ _ ^ ' 1.] _ _ _ ^ T ,.o.@. .o. X9XpX0X0X0X5Xm.r r z.s.@X@X@X=XkXgXo b.^.}.l.< x.A.N V.V.k.z N J.2XE _ ^ ~ D ",
"H ^ } { ^ ~ J ^ <._ _ _ <.P ) <.&.@._.o.5 ..n..X%XpXCXSXCXwX~.< r.@XuXMXSXDXgXl.6 ~.^.m.[.{.I.i.u.V k.u.<XiXmX[ [ _ G G ",
"H K ^ } ^ ~ I ^ 6.^ ^ 1._ Y Y 9.w.#.#.| @ , : & c.N.6XvXCXZXFXFXDXuX#X9XpX5Xb.  : < x.'.wX5XP.K.A.N L.2XiXaXNXD.5._ ` F ",
"^ ^ P ~ ^ ^ ^ ~ { ^ ^ 6.6.) ) 2.w.| | 2 1 7 3 6 t.; r.c.L.'.%X9XjXnXZXAX3Xx., c x.x.v t.P.L.B.U.4XI.4XtX8X8XaXk.Q _ ` F ",
"} ^ H J ^ _ ^ I 1._ _ 1.6.<._ &.X.2 | Y.Y.Y.v.`.z.t.M.{.{.`.`.^.^.m./. Xx.x + o.:.G.u.k t.U.6X6X6X5X6X&XK.#X2Xk.Q ^ G F ",
"( K ^ ^ ^ ^ ^ ^ _ ' 1._ <.' S g | 2 R.XX).Y.Y.OXvXtX@Xi.* l.~.`.}.~.3X3X .# a H.*.C.Z.N i.#XuX6X{.#XP.f.h.8Xh.A.V._ F F ",
"J ^ { { ) ^ ^ ^ 1.6._ ^ 4.4.Y h | R.XXR.R.W.}.9XnXvXtXi.; u.G...Q.XXhX3X$ $.>.7.9.;.=.u.t.P.&X#XN.L.z.y.P.uXr.k.Q _ F F ",
"{ ^ ^ ^ ^ ~ ~ ) D 1.<.<.;.X.B x O.XXE.O.E.Q.v.0XDXyX&X@X- Q T &.@.(._.X.g g e.2.<.U >.o.v m.^.b.b.^.b.b.1X1XJ.E I } ^ ^ ",
"^ ^ K ( { ' ' -X1.` S 4.,.V G. XY.R.O.7 ).Q.m.eX0XuXvX6Xj h G ,Xq.(.#.g S <.2.2.4.7.*.o.< v.^.N.~.b.m.3X1XQ l S.^ ^ ^ K ",
"( ^ _ { ' ^ ~ / G >X<.U $._.iXjXY.3 7 Y.Y.+.`.xXvXbXMX6Xb j Y 2._.F.f a $.7.2.<.Y ;.=.v ..b.p b.b.n. X XG.B R [ ^ J K K ",
"_ ^ ^ } ) ^ ~ / C ,X9.L B 2XiXeXY.. 7 ).).}.cXZXgXyX=X#Xk (.>.%.0.X.$ f -.9.4.T U 8.m j x.b.b.^.!./.(.Z.b S.H.H } ^ ^ ^ ",
"( ~ ~ ( ' } ' >X_ _ L -.V.Z.{..X+X3 . 7 @ , 6 > N.$X$X].< [.0.q.o.c c =.,.8.-.] 8.5.l + x.m.`. X1XF.:.C.! R } P K K ( -X",
"-X( ^ ^ ( ~ ^ ' ~ { T Q Z.I.7XrX+X3 . 3 @ 5 6 > b.^.$Xb.l.n.@.0.c x B F.;.W W W W U b V F.L.`./.G.B m ;.W L P ( _ ^ ( ( ",
"' ~ ~ ~ ^ J J J C >X5.! k.[.wXwXgXW.7 6 @ 5 6 6 p i i e n./.Q.n.v x o.C.-.U ] T s l R C.F.G.F.x.M W W I _ 6.( ~ ( ( -X-X",
"C C A ^ } } ' ;X6.] E V.u.N P.9XAX~.4 7 +.W.Q.n.p i o ^.|.eXn...:.b *.8.-.4.9._ P Z L U l B F.=.5.9.T I >X6.A A K / / -X",
";X-X{ ( J ^ ( ' { ] W E k.2XtXtXAX}.3 7 6 Q.W.+.4 4   b.v.OX~.n.F.,.8.;.4._ ' ' ) _ 6.7.7.>.=.>.9.{ ^ ^ K ^ / K F K / / ",
") ' { ' ^ J K ^ ^ _ [ V.I.iXlXlXjX~.4 W.7 v.+.: +.: 4 6 ^.~.}. XX.T >.<.<.1.1.1.G ) ) ) _ T T Y { ' / / / / / A J A D J ",
") ' { _ } ^ J J ( _ ] Q D.7XaXlX}.6 6 Q.v.6 v.3 :   !.OXrXl.l.x.m Y Y Y _ ) ' :XD F ~ ~ ) Y ) _ ' ( ( ( ( ( / ~ / K ^ D ",
") ) _ ( ^ J J C ~ ~ } Q D.7XmXNX}. ./.}.}.!.}.v.+.+./.OX`.= O v $.Y 3.Y ) ) / / ~ ~ ` ` ) ) _ 1./ K ( ( ( ( ~ K ' ) ) / ",
"' _ ) ~ ^ K J J ( ( } V.S.2X7XiXn.# @./.!.+.n.: /.Q.n.l.- O = Z.5.<.<.) ~ P ` ) ( ( ( ( ) ) ' ;XK ~ ( ' ' ^ ~ ^ ' ' ' { ",
"_ ) I ~ ^ ( ^ K -X-X{ } E E k.u.@. .@.!.m.v.6 % l., , O , - x.Z.4.' _ ) ~ _ ) 6.( ( ( } ^ ^ _ _ ~ ^ ^ ' _ ^ ^ I ^ ^ _ _ ",
") ^ ^ _ { ' ( / / K } } } k.A.u.o.X.f 5 , , : = v.= O O o.x.G.V.W <.<._ ' _ { } ^ } } } } K K ^ P ^ ' _ _ ^ _ _ T ^ ^ ^ ",
"~ ^ _ { ;X;X-X/ >X( } } Q k.S.k.0.0.O + % < , _.Z...- [.I.qXZ.M T _ 6.6.[ } } } K } } } } } } ^ ^ ^ _ _ ^ T T _ ^ I ~ I ",
") ~ A ~ ~ ~ ^ ' _ ^ ~ _ 5.] 5.8.0.o.m.5XtX7XJ.W S.=.v {..X[.m &.T _ ] ] ' { ^ P ^ _ _ ' { _ ' ( ~ ^ ^ ) ~ ~ ) ' ~ ~ ~ ~ ",
"( ~ J ~ ^ ^ _ ' _ Y P ^ _ ] ] 4.0.n.N.P.U.D.I C 6.E ; M.P.`.X.2.T _ } _ ^ _ _ P ^ ^ _ _ ' ' ` ' ~ ~ ~ ~ ~ ~ _ ) ) ` ^ ` ",
"' ^ J ^ ( ^ ^ _ ^ ) ) ^ 4._ ] %.F.}.%X#XK.u.E ' Y -.G.6XwX1Xq.$.P _ ] I I ^ ^ P ~ ~ ^ ) ( ' ) ( ^ ~ D D ^ ) ) ' ' ' ' ' ",
"-X/ ~ / ^ ~ ^ _ P ) T T _ _ T U o.3XpX0XK.z ] >X1.;.x.m.L.m.o.7.T _ _ ^ P ^ ^ ^ ~ ^ ^ ) ) ) ' ' ' ` ~ ~ ( ' :X' ' ' ' -X",
") / ~ ~ ^ ^ ~ ^ P _ _ ^ T _ I n , !.%X'.i.! ] 1.w.&.x O % = o.H.T { [ ^ ~ I ^ ) ^ _ _ ^ ' ) ' ) ' ) ~ ~ ) -X' ' ` ) ' ' ",
"( J J ~ ( ~ ~ P ~ _ _ _ ^ _ L n + , r r u.S.2.G e.&.v % < v o.*.T { { ] ^ ^ ^ ^ { _ _ _ / ) ) ) ^ ~ D D ) ) ' ) ) ) ) ) ",
"( K ~ ^ ( ^ ^ ^ I 1.6.T T _ P d # = < v u.5.2.3.3.&.c O % = ..M L ^ ] _ ^ _ _ <.' ' ) ^ ~ ~ ~ ~ D ~ ` ^ ^ / ) ) ) ^ / ) ",
"^ ~ ~ ( ' _ ^ _ ~ { 6._ _ _ I d + < x.x.B n G 3.3.2.:.O = - c a d H } _ _ { { { { ' ) ^ ~ D ~ D C D ' ' ) ) ( ) ^ ) ) ) ",
"J ( ( ( _ _ _ K _ { _ _ _ ] L h # c v c a s G 3.3.&.X.+ O O + h h h P { P H _ _ { ] ^ ^ ' -X' ^ _ ' ) ) ~ ~ ` ) :X) ^ ) ",
"~ / ) ^ ( _ _ ^ _ ' <.^ _ ] P n x c c j d d S G 3.e.X.M c b n n s H } { P H _ _ _ ' ) ^ ' { ' ) ) ) ' ' ` ~ ~ ) ' / ^ ) ",
"^ ( ' / ^ ^ ' ^ _ ' ] ^ T ] <.;.:.0.:.Q _ ) ` :X3.2.>.>.=.;.;.4.W ^ ] ] P P { } ' _ ( ^ ` :X' ^ ) ' ' / ~ ~ / ` ) ~ ~ / ",
"/ ( ( ~ ~ ' _ _ _ _ <.^ _ _ 6.9.,.,.;.-.' ' G ` <.2.7.*.*.*.4.-.^ P ^ _ P ^ { _ ' ' ) ^ ' 1.' ~ ' ' ) ) ^ ^ ) ) ) ~ D ~ "
};
