/* XPM */
static char *_dece14059794047b444ec9d6e22f9b2u2MU14wZNstCesDA[] = {
/* columns rows colors chars-per-pixel */
"60 60 155 2 ",
"   c #291E18",
".  c #2C231C",
"X  c #30261D",
"o  c #2E2C20",
"O  c #352C23",
"+  c #382E26",
"@  c #322E2A",
"#  c #363026",
"$  c #3A3027",
"%  c #353229",
"&  c #3D332B",
"*  c #3B3632",
"=  c #3F3B33",
"-  c #40362D",
";  c #42382F",
":  c #453B33",
">  c #483F36",
",  c #433E3A",
"<  c #483F38",
"1  c #4A4037",
"2  c #47433C",
"3  c #4D433B",
"4  c #50473E",
"5  c #52483F",
"6  c #504740",
"7  c #554B43",
"8  c #584E45",
"9  c #554F4A",
"0  c #594E49",
"q  c #545246",
"w  c #5A5047",
"e  c #5C534A",
"r  c #5E5A4F",
"t  c #5E5955",
"y  c #60564E",
"u  c #62584F",
"i  c #605750",
"p  c #655B53",
"a  c #685F55",
"s  c #695F59",
"d  c #696057",
"f  c #6C635A",
"g  c #6D695E",
"h  c #70665E",
"j  c #72685F",
"k  c #6E6761",
"l  c #6F6862",
"z  c #716760",
"x  c #756B63",
"c  c #796E66",
"v  c #777366",
"b  c #7A7067",
"n  c #7C736B",
"m  c #7F7A74",
"M  c #81776E",
"N  c #82786F",
"B  c #817770",
"V  c #857B73",
"C  c #897F76",
"Z  c #867D78",
"A  c #898077",
"S  c #8D837B",
"D  c #8F887E",
"F  c #90867D",
"G  c #92887F",
"H  c #908780",
"J  c #958B83",
"K  c #998F86",
"L  c #958E88",
"P  c #988F88",
"I  c #9A9087",
"U  c #9D938A",
"Y  c #9E9791",
"T  c #9F9892",
"R  c #A1968D",
"E  c #A2988F",
"W  c #A19791",
"Q  c #A59B93",
"!  c #A99E95",
"~  c #A69F99",
"^  c #A99F99",
"/  c #ABA097",
"(  c #A7A09A",
")  c #ADA39B",
"_  c #AEA99D",
"`  c #B0A297",
"'  c #B1A69D",
"]  c #B3A89F",
"[  c #BCAB9E",
"{  c #AFA6A1",
"}  c #AFA8A2",
"|  c #B1A7A0",
" . c #B5ABA2",
".. c #B9AEA5",
"X. c #BDAFA4",
"o. c #BCAFA6",
"O. c #B9AEA5",
"+. c #B6AFA9",
"@. c #B7ADA8",
"#. c #B8AFA8",
"$. c #B9AEA9",
"%. c #B6B1A3",
"&. c #BAB0A7",
"*. c #BEB0A5",
"=. c #BDB0A7",
"-. c #BAB0A6",
";. c #B7B0AA",
":. c #B7B0AA",
">. c #BBB1A8",
",. c #B8B1AB",
"<. c #BBB2AB",
"1. c #BEB1A8",
"2. c #BCB2A9",
"3. c #BFB2A9",
"4. c #BDB3AA",
"5. c #BEB4AB",
"6. c #BBB4AE",
"7. c #BFB5AC",
"8. c #BDB3AA",
"9. c #BEB8AC",
"0. c #C0AEA0",
"q. c #C1AFA1",
"w. c #C0B0A3",
"e. c #C1B1A4",
"r. c #C2B2A5",
"t. c #C3B3A6",
"y. c #C4B4A7",
"u. c #C0B3AA",
"i. c #C1B4AB",
"p. c #C5B5A8",
"a. c #C7B7AA",
"s. c #C2B5AC",
"d. c #C0B6AD",
"f. c #C3B6AD",
"g. c #C1B7AE",
"h. c #C4B7AE",
"j. c #C0B6AD",
"k. c #C2B8AF",
"l. c #C2B8AF",
"z. c #C9B9AC",
"x. c #CCBCAF",
"c. c #C0B6B1",
"v. c #C3B9B0",
"b. c #C4BAB1",
"n. c #C5BBB2",
"m. c #C7BDB4",
"M. c #C4BAB2",
"N. c #C8BBB2",
"B. c #CABCB1",
"V. c #CBBDB2",
"C. c #C8BEB5",
"Z. c #CAC0B7",
"A. c #CAC0B7",
"S. c #CCC3BA",
"D. c #D3C5BA",
/* pixels */
"C ..] ]  .) 4.) ` ) ) ) ) ] ] ] N y ' f.4.N.D.B.z.B.x.a.0.0.0.y. ./ d.2.y w / '  . .]  .] ' ) ] ) @.@.} } ,.@.( ~ +.Y l ",
"V ) / / ' ) 4.] / ! /  .-.O.) Q c r ..B.q.f.B.o.[ 0.t.y.q.[ q.q.d.' -.` e 4 U  .' ' ) ' ] ] ) )  .} } } @.:.,.} <.<.L p ",
"f U )  .4. . .! ] ! U U Q / U J e 7 ..m.X.o.o.` R ` [ t.y.q.q.q.i. . .) f 3 S O...] ) ) `  . . .} ( / { @.@.:.6.| { B 0 ",
": d n N N c h d y 8 4 3 7 w 7 1 3 >  .d.'  .o.! E ` [ t.y.t.q.q.O...-...n : a U Q R J D G J J G L D S Z n c x v k f 6 O ",
"w p p 3 ; $ $ > 7 d n S H F N z 8 3 ^ 4.'  ...) ` [  .X.X.0.X.X. .-.o. .b O > c c j d p u y 5 ; 1 3 9 w 9 7 9 e 0 i 0 6 ",
"E U U V j e ; 4 V U  .d.b.k...) n 7 R @.]  ...` [ ' ' ` ` [ [ [ ]  .` ) c - w S ! ) ) / Q K c 8 & 7 k n V S L U H Y Q W ",
"4.O.N.2.] F 7 1 R  .4.-.O.2.<.O.L 7 H {  . .' ) ' ` ` ` ` ' [ ' ] ] ` / x 7 A -. .4.k.k.k.-.J x x U 7.M.O.2.7.2.O.i.i.i.",
"4.] 4.k.N.! w 3 J / 2.2.-.4.%./ W 3 n Q  . .' ) | ` ^ ` ` [ X.q.O. .] / x y U b. ..... .4.k.) F i U M.M.O.2.4. .i.c.o.O.",
"%...4.7.d. .w 4 Q ) ' 4.<.<.-.2.H @ L T { ) { ) |  .' ^ `  .X.` ! ` / ) n d  . .4.2.4.4./  .-.b n ^ y.o.|  .O.i.o.o.$.w.",
"'  .7.7.4. .r 8 ) `  .2.2.O. .O.H % L T ) ~ ) @.` X.u.o.X.X.X.X.] -.]  .c w E O.4.) / -.i.A.-.f C ' f.o.@.w.w.f.w.o.o.o.",
" .2.k.7.-.' y e Q ! '  .)  . . .A * L ( { T T @.|  .O.| | | ` ` ] ) R ! b p R  .-. .) ] ) ) Q d P  .u. .w.i.u.u.i.i.$.o.",
" .O.2.-. .` e e Q ) ]  . . .O.@.m * H ( :.{ } ,.c.O.' ) X.o.O.` ]  .) ! b d R  .!  . .-.] ) ` N ! O.[ ` | w.O. .w.$.w.o.",
") ) ) ]  .] u y R )  .' ) ) ) / l @ t m U ~ { } ^ ^ ^ ' ' ' ` ` E O.) A w 5 A / )  .)  .O./ G y ! [ ` ! ' [ [ ` | ` ' [ ",
" .] ) ) ' ) 8 4 F R / ! Q ! ! Q l * 2 t k Z A H Z F P U J C C F A N h 8 1 w M R / ) J A V j d 1 Q [ ` ! [ [ ` ` ` ` ` ` ",
" .] ] ) / ! 6 4 7 a x h d f d p , @ * = , 9 9 7 6 : & : 6 8 8 8 8 ; O $ & O ; a e d 4 : > & - O R [ [ ` ' [ ` ' O.[ ' [ ",
"U Q ) ) ) / r y G Q / R G S V n v H ( } ( @.@.( J s < y J $.i.| / / -.2.F 5 5 I  . .I U / J j : I ` | [ | ` ! [ ' ' ' ' ",
"Q  .O.U d.! 7 C  . .-.-.-. . .) +.6.{ ( d.2.@.N.] S 8 x  .i.d.m.4.-.'  ./ n 4 4.4.d.....] ] I 3 f I ] )  ._ / E _ ) ] ] ",
"] '  .!  .G 7 J  .O.-.2.7.7.4.4.{ @. .@.k.4.)  .m.Q f V -.4. .-.d.4.O.2. .V 5 2...2.O.-. . .Q e e A )  .) ! Q  ._ ) / ) ",
"Q J E R U n p ` / / ) ]  . .....) 2. . .4.-.' '  .J r c ' ..-.d.9.k.4.N.2.A 7 ..)  .O.2...4.] c $ 4 f S ! ) (  .] / T I ",
"p 8 d h u 5 7 S ) / / ) / ) ) ' %.O./ Q / ) ) ) -.U p b ' ..4.d.4.k.<.k.2.D w 4.) O.2.7. .4.4.Z O 1 3 q f x d d d p e w ",
"X - y y 6 5 5 r p a h n C J E ! U F N N N C S A S b 7 j ) O.2.<.-.-. .-.] F e 4.O.<.4.b...4.7.D 1 v D x f f d f d p 7 ; ",
"w F -.4.O.-.] Q J D C n x f f a i : - 4 7 8 8 7 e w ; d / O.O.O.]  .) ' ` S e 4.4.7.4.k.O.-.7.J e U 6. .) 2.%.) 7.} J j ",
"7 K 4.4.7.k.7.O.O.O.O.O.-.-.4.4.U h h J R U U K I F d M )  .) / ]  .) ) ) S w -.7.4.-.9.O.2.M.I v Q -.O.M.m.2.) 9.:./ A ",
"a / -.] { ' 2.9.7.7.4.2.-... . . .n n ) 4...i.4.i.) b m / )  .O.]  .) ] ) S w  .7.-. .<. .2.N.U n Q :.O.) / _ 7._ O._ J ",
"p Q ..' k.) U -.]  . .4.2. . .-./ y U 2.%.M.E :.4.l.A 5 J ] [ ) ) ) ] 4./ N 6  .-.-.-. .] k.-.I e /  .]  ._ %. . .] / U ",
"w U  .` 4.../ ) ]  .) / Q Q Q ! S r ! O.) N.) O.] 2.V ; f x N G R J S V j 7 ; `  . . .) ) O.) S f T J A V n A Z A V n g ",
"p J / ! ) ] ) ! / ) / Q R Q E J e 7 ! ..) S.O.O.i.-.N $ 5 : : 7 3 3 1 3 1 ; $  .] )  .) / ] Q A O e w w e 9 r u r e 5 ; ",
"8 y a u 7 3 3 3 ; 5 w w w y 4 $ - - J 2.O.S.2.O.] / m p ` -. .k.2.-.] ) K h : Q ] ] O. .) ] / G & d D )  .) ) ' ) / E L ",
") U J G c > ; e b S I U Q Q J n 4 + N  .O.4. ...b.] V d -.4._  . ...-.k...G 7 Q ) ] -.%.]  .) I & p Q m.A.4.2.<.O.:.<.-.",
"S.4.-.A./ p w F Q  .-.4.4.i. .Q h - d Q ) ' ] -.O.' V a ) O...m.M.4. ...' S 5 K ) ) O...]  . .Q q l ) 7.] ]  .9. .2.<.-.",
"/ ]  .k.] j d ) 2.4.k.k.4.-. . .x ; p E ) )  . .) / V r Q ]  .7.d.4. ... .J r ! ) ) @.O.) ]  ./ d n @.-./ 2.<.9.2.7.4. .",
"Q -. .O./ j f 4. .O.2.7.2.` ) ` p - a Q '  .O.) / ) N p ' M... . .-.-.i. .J w U  .) O.O.) ]  .) p c  .%./ 7.%.) %.-.-.] ",
"O./ ..-.! a V ] -./ / 4.k.] ! / i : k ^ | @.O.} ) @.S e U { @.@.2.) / / ] Q e U ` ) ! / ] ) ) ) u x E 4. .`  . .O. . . .",
"-.)  .) J w n ' i.O. .k.k.-. . .p , c | $.$.@.@.} ) n 9 U  .) ~ ] / (  .` U y A ' ) ]  .-.O. ._ w h R -._ / ) ` ) ) ' ] ",
"Q E  .) U a N k.k.i.2.-.4.7.2.%.x < c Q  .@.{ / @.T s : V ~ { { -.4.O.M.Q N 8 h / / ) '  .' / Q ; y H .. .) ) ) / / ) ) ",
"/ Q / I n 5 e E 2.4.-.) ] 2.2. .Z , p m S H Z V V n 6 & x Y / @./ O.) 2.G h y u J K U U I U J F ; 7 V ! ) Q R I U E E Q ",
"a u i 8 3 ; 3 !  .O. .! !  .O.) n . 7 e g f e 6 , 9 2 < 7 e 6 6 7 p r h 3 O X ; $ > 5 7 8 7 5 > $ $ 3 u u y e 4 4 5 9 w ",
"/ / ) U S j 4 J )  . ./ /  .O.) J 4 J Y @.{ T U H Q U Y S Z l x n Z V Z p 1 O w x A T Q ) ) Q K G n b N n V S V U U E Q ",
"Q ) 2.k.-.R 5 A )  . .' ' '  .] Z 2 / @.m.<.@.M. .<. .6.@.c.7.m. .O.O.) G h + j U / O.@.-.7.i...i.) ) ] ) ] 2.-.4.4.-.O.",
"O.-.4.4.4.Q 8 S ] ) ]  .@. .) _ H w 6.@.6.( { M.c.7.{ M. .<.) @.[ %.M.M. .J 4 J -.d.2./ / -.N.b.k.4.m.S.i. . . .4.4.2.-.",
"2.7.N.' -.` 3 V /  .%. .]  . . .J 0 ( | $.( <.M.<.<. .@.c.$.{ ^ )  .N.) O.U e G -.4.-.-.-.d.k.d. .7... .-.2. . .o.u.c.c.",
" .)  .) ` I : F ) ] ) / ! )  . .n : U { 7.@.@.} @.$.| |  .{ ^ ^ ] ) -.) O.K e S ]  . .] ) ] ] ' 2.-. .) O. .@.7.'  . . .",
" .)  .-.-.J 4 U )  . .) ) ) ) ) Z 2 H W <.@.) U ) @.| { { | @.@.O.) .. .-.J 8 n / ]  . . . . .] ' ! ! ` ) / ) 2.i.c.f.i.",
"/ Q ) ] ) F 5 G / ]  . .' / E I s & k Z ( O.6.O. .| @.| Q W ^ ^ / Q ) ` ] V 4 d J E ) ) / ' ' _ ) / ' o.O. .%.O.' ' | { ",
" .] Q J M d O a G I I J S C n h 0 & 7 p B S P L D n m B z s p i V N N V V p 3 p c N S A S C C N U J R E U ! ' R ' ) ) ) ",
": 3 : 1 & > & j a p e 6 3 3 1 ; 7 < 3 7 7 6 7 3 r & < s s s s t 7 7 5 5 5 1 4 a u a f p r 8 4 > < + - < < 8 p 8 w 0 7 7 ",
"A S V A u 5 1 N / Q I G G J K J P P L W W ~ ~ Q n : 0 J ^ ) @.{ E E I J I Q )  . . .' ) ! R J V a - 4 c b N F C C V N n ",
") ] -.A.J d y U d.4.2.O.-.d.d.-.<.<.) | @.@.c.6.^ t p ^ c.c.u.| ..k. .] ..4.d.` 4.-.O. .O. .! U C 6 d O.i.' o.o.u.X. .' ",
"4. ./ 9.} Y 5 E %.:.2.<.9.6.7.M.<.6.$.c.@.@.M.$.@.Z 0 c.@.{ c.u.-.-. .)  .k.k.4.N.k.<.-. .-.2.4.V e ! 2.! ..O.f.u.w.o.$.",
") ) ) S.9.( 4 D ) )  .O.%.] _ _ $.c.c.$.@.{ @.@.@.Z 0 @.W W { {  .-.2. . . .-. . .-.2.2.-.] ' ) m e T :.Q ' `  .t.t.w.o.",
"%._ / %._ E r Y  . ...O. ._ ] _ ^ @. .| | ) ^ @.@.V 7 ^ ^ | w.{ Q ) ] ) ) ) ) ' Q ) O.-.O. . . .S g ( 9.` O.` | ' ' ' ` ",
"Q ) / @.Q D 3 d U U U K L U Q ! ^ ^ | ^ | | W  .W s - V W @.@.^  .-.-... . .) / / / / / ) ] ) _ n f U %.^ O.O.O.' ` ] ] ",
"G J D A j r # : 6 0 0 y y u p i f p z z c M s c z 7 + i z B B n A N V S U Q Q !  .) / Q ! E I S r q v J P ! ` ) E E E E ",
"4 q 1 & & 1 5 f p f z z f s 0 ; -   7 p s z p z 0 0 7 7 < : < 9 w 7 5 8 w u h n f f f h j a 8 : # o = 5 7 0 0 0 u r r e ",
"w n J T / ) 4.4.O.w.u.@.w.| U M 7 ; J  .^ u.@.u. .4.i.) Q U J ! U J S f 1 X > a n N F J G A m v v v v A N v x a 5 1 % X ",
"M Q 4.<.O.[ k.-.| | | | u.N.@.W 0 : ^ C.| c.u.u.4.4.4.| b.m.%.[ O.l.i.J w ; f R /  .i.l.-.] ]  ._ %._ 2.9.] / R m f q 1 ",
"R  .o. .$.u.u.$.{ { | q.o.@.o.o.z 7 X.f.O.i.-.-.i.d.9.-.%.-.-.i.i.-.-.-.a 1 U ' 4.2.-...O.2.2.<.%.%.%.%.%.*.*.9.%.E m # ",
"R [ o. .u.u.w.u.w.@.w.u.o.[ | [ B 0 O.i.] -.-.-.4.i.-.-. .]  .-.d.2.i.-.d 5 Q -.4.4.-...O...2.<.%.%.%.%.%.%.9.9.z._ D 2 ",
"U  .X.' o.u.o.q.u.w.@.w.o.| ` ` F p X.o.)  .O.u.9.t.2.O.] ]  .[ 4.2.7.4.f 8 ) 4.2.2.-.2.-.2.2.2.%.%.%.%.%.*.*.y.A.%.Q q ",
"U ' O.'  .w. . .| ' { @.@.` { { J s $.o.) ] O.u.k.d.2.-. . .%.-.-.-.4.-.f w / 4.%.O.2...-.$...2.%.%.%.%.*.%.y.p.<.%.( t "
};
